{
  "accessors": [
    {
      "bufferView": 2,
      "componentType": 5126,
      "count": 5776,
      "max": [
        1.0034143924713135,
        0.5708404779434204,
        -0.09004168212413788
      ],
      "min": [
        -1.0058308839797974,
        -0.34986412525177,
        -5.492955207824707
      ],
      "type": "VEC3"
    },
    {
      "bufferView": 2,
      "byteOffset": 69312,
      "componentType": 5126,
      "count": 5776,
      "max": [
        0.9998807907104492,
        0.999976396560669,
        0.9998539686203003
      ],
      "min": [
        -0.9997940063476563,
        -0.9999885559082031,
        -0.9955624938011169
      ],
      "type": "VEC3"
    },
    {
      "bufferView": 1,
      "componentType": 5126,
      "count": 5776,
      "max": [
        0.9860294461250305,
        0.9886761903762817
      ],
      "min": [
        0.0011574772652238607,
        0.0011574772652238607
      ],
      "type": "VEC2"
    },
    {
      "bufferView": 1,
      "byteOffset": 46208,
      "componentType": 5126,
      "count": 5776,
      "max": [
        0.872276246547699,
        0.6763981580734253
      ],
      "min": [
        0.0,
        0.0
      ],
      "type": "VEC2"
    },
    {
      "bufferView": 0,
      "componentType": 5125,
      "count": 30132,
      "type": "SCALAR"
    },
    {
      "bufferView": 2,
      "byteOffset": 138624,
      "componentType": 5126,
      "count": 32432,
      "max": [
        1.0214160680770874,
        0.6549373865127563,
        -0.07550455629825592
      ],
      "min": [
        -1.0214158296585083,
        -0.4804212749004364,
        -5.737787246704102
      ],
      "type": "VEC3"
    },
    {
      "bufferView": 2,
      "byteOffset": 527808,
      "componentType": 5126,
      "count": 32432,
      "max": [
        1.0,
        1.0,
        1.0
      ],
      "min": [
        -1.0,
        -1.0,
        -1.0
      ],
      "type": "VEC3"
    },
    {
      "bufferView": 1,
      "byteOffset": 92416,
      "componentType": 5126,
      "count": 32432,
      "max": [
        0.9968835711479187,
        0.9988424777984619
      ],
      "min": [
        0.0,
        0.0
      ],
      "type": "VEC2"
    },
    {
      "bufferView": 1,
      "byteOffset": 351872,
      "componentType": 5126,
      "count": 32432,
      "max": [
        1.0,
        1.0
      ],
      "min": [
        0.0,
        0.0
      ],
      "type": "VEC2"
    },
    {
      "bufferView": 0,
      "byteOffset": 120528,
      "componentType": 5125,
      "count": 133116,
      "type": "SCALAR"
    },
    {
      "bufferView": 2,
      "byteOffset": 916992,
      "componentType": 5126,
      "count": 763,
      "max": [
        0.33929088711738586,
        0.47164013981819153,
        -4.935129642486572
      ],
      "min": [
        -0.33929088711738586,
        -0.26741212606430054,
        -5.374950408935547
      ],
      "type": "VEC3"
    },
    {
      "bufferView": 2,
      "byteOffset": 926148,
      "componentType": 5126,
      "count": 763,
      "max": [
        0.9995769262313843,
        0.9999798536300659,
        0.9992616176605225
      ],
      "min": [
        -0.9995769262313843,
        -0.9816218018531799,
        -0.996651828289032
      ],
      "type": "VEC3"
    },
    {
      "bufferView": 1,
      "byteOffset": 611328,
      "componentType": 5126,
      "count": 763,
      "max": [
        0.9670274257659912,
        0.9932023286819458
      ],
      "min": [
        0.12731565535068512,
        0.11416558176279068
      ],
      "type": "VEC2"
    },
    {
      "bufferView": 1,
      "byteOffset": 617432,
      "componentType": 5126,
      "count": 763,
      "max": [
        0.9994121789932251,
        0.9427433609962463
      ],
      "min": [
        0.25930023193359375,
        0.000587800401262939
      ],
      "type": "VEC2"
    },
    {
      "bufferView": 0,
      "byteOffset": 652992,
      "componentType": 5125,
      "count": 3468,
      "type": "SCALAR"
    },
    {
      "bufferView": 2,
      "byteOffset": 935304,
      "componentType": 5126,
      "count": 2246,
      "max": [
        0.7402284145355225,
        0.6641587018966675,
        -0.04886963218450546
      ],
      "min": [
        -0.7402284145355225,
        -0.4655526280403137,
        -5.441203594207764
      ],
      "type": "VEC3"
    },
    {
      "bufferView": 2,
      "byteOffset": 962256,
      "componentType": 5126,
      "count": 2246,
      "max": [
        1.0,
        0.9993418455123901,
        1.0
      ],
      "min": [
        -1.0,
        -0.9995852708816528,
        -0.9767742156982422
      ],
      "type": "VEC3"
    },
    {
      "bufferView": 1,
      "byteOffset": 623536,
      "componentType": 5126,
      "count": 2246,
      "max": [
        0.9942523837089539,
        0.9881458878517151
      ],
      "min": [
        0.030418073758482933,
        0.0011574772652238607
      ],
      "type": "VEC2"
    },
    {
      "bufferView": 1,
      "byteOffset": 641504,
      "componentType": 5126,
      "count": 2246,
      "max": [
        0.9994346499443054,
        1.0
      ],
      "min": [
        0.04040789231657982,
        0.0
      ],
      "type": "VEC2"
    },
    {
      "bufferView": 0,
      "byteOffset": 666864,
      "componentType": 5125,
      "count": 8430,
      "type": "SCALAR"
    }
  ],
  "asset": {
    "extras": {
      "author": "D34TH11 (https://sketchfab.com/D34TH11)",
      "license": "CC-BY-4.0 (http://creativecommons.org/licenses/by/4.0/)",
      "source": "https://sketchfab.com/3d-models/clone-trooper-phase-i-8f40fd5418e741858a7ded9cc26e6d39",
      "title": "Clone Trooper Phase I"
    },
    "generator": "Sketchfab-12.66.0",
    "version": "2.0"
  },
  "bufferViews": [
    {
      "buffer": 0,
      "byteLength": 700584,
      "name": "floatBufferViews",
      "target": 34963
    },
    {
      "buffer": 0,
      "byteLength": 659472,
      "byteOffset": 700584,
      "byteStride": 8,
      "name": "floatBufferViews",
      "target": 34962
    },
    {
      "buffer": 0,
      "byteLength": 989208,
      "byteOffset": 1360056,
      "byteStride": 12,
      "name": "floatBufferViews",
      "target": 34962
    }
  ],
  "buffers": [
    {
      "byteLength": 2349264,
      "uri": "scene.bin"
    }
  ],
  "materials": [
    {
      "doubleSided": true,
      "name": "Black_Body",
      "pbrMetallicRoughness": {
        "baseColorFactor": [
          0.00424186,
          0.00424186,
          0.00424186,
          1.0
        ],
        "metallicFactor": 0.0
      }
    },
    {
      "doubleSided": true,
      "name": "White",
      "pbrMetallicRoughness": {
        "baseColorFactor": [
          0.8,
          0.8,
          0.8,
          1.0
        ],
        "metallicFactor": 0.0,
        "roughnessFactor": 0.195455
      }
    },
    {
      "doubleSided": true,
      "name": "Black_Visor",
      "pbrMetallicRoughness": {
        "baseColorFactor": [
          0.0,
          0.0,
          0.0,
          1.0
        ],
        "metallicFactor": 0.0,
        "roughnessFactor": 0.0
      }
    },
    {
      "doubleSided": true,
      "name": "Grey",
      "pbrMetallicRoughness": {
        "baseColorFactor": [
          0.0420656,
          0.0420656,
          0.0420656,
          1.0
        ],
        "metallicFactor": 0.3036688078874312,
        "roughnessFactor": 0.709091
      }
    }
  ],
  "meshes": [
    {
      "name": "Object_0",
      "primitives": [
        {
          "attributes": {
            "NORMAL": 1,
            "POSITION": 0,
            "TEXCOORD_0": 2,
            "TEXCOORD_1": 3
          },
          "indices": 4,
          "material": 0,
          "mode": 4
        }
      ]
    },
    {
      "name": "Object_1",
      "primitives": [
        {
          "attributes": {
            "NORMAL": 6,
            "POSITION": 5,
            "TEXCOORD_0": 7,
            "TEXCOORD_1": 8
          },
          "indices": 9,
          "material": 1,
          "mode": 4
        }
      ]
    },
    {
      "name": "Object_2",
      "primitives": [
        {
          "attributes": {
            "NORMAL": 11,
            "POSITION": 10,
            "TEXCOORD_0": 12,
            "TEXCOORD_1": 13
          },
          "indices": 14,
          "material": 2,
          "mode": 4
        }
      ]
    },
    {
      "name": "Object_3",
      "primitives": [
        {
          "attributes": {
            "NORMAL": 16,
            "POSITION": 15,
            "TEXCOORD_0": 17,
            "TEXCOORD_1": 18
          },
          "indices": 19,
          "material": 3,
          "mode": 4
        }
      ]
    }
  ],
  "nodes": [
    {
      "children": [
        1
      ],
      "matrix": [
        0.06666664034128189,
        0.0,
        0.0,
        0.0,
        0.0,
        -0.00031483486901032453,
        -0.06666589727033712,
        0.0,
        0.0,
        0.06666589727033712,
        -0.00031483486901032453,
        0.0,
        0.0,
        -5.074645014247286e-05,
        0.016233621165156364,
        1.0
      ],
      "name": "Sketchfab_model"
    },
    {
      "children": [
        2
      ],
      "name": "root"
    },
    {
      "children": [
        3
      ],
      "matrix": [
        1.0,
        0.0,
        0.0,
        0.0,
        0.0,
        2.220446049250313e-16,
        1.0,
        0.0,
        0.0,
        -1.0,
        2.220446049250313e-16,
        0.0,
        0.0,
        0.0,
        0.0,
        1.0
      ],
      "name": "GLTF_SceneRootNode"
    },
    {
      "children": [
        4,
        5,
        6,
        7
      ],
      "matrix": [
        1.0,
        0.0,
        0.0,
        0.0,
        0.0,
        -1.685873969314855e-07,
        0.9999999999999858,
        0.0,
        0.0,
        -0.9999999999999858,
        -1.685873969314855e-07,
        0.0,
        0.0,
        0.5441142320632935,
        -0.07301591336727142,
        1.0
      ],
      "name": "male_genericMesh_0"
    },
    {
      "mesh": 0,
      "name": "Object_4"
    },
    {
      "mesh": 1,
      "name": "Object_5"
    },
    {
      "mesh": 2,
      "name": "Object_6"
    },
    {
      "mesh": 3,
      "name": "Object_7"
    }
  ],
  "scene": 0,
  "scenes": [
    {
      "name": "Sketchfab_Scene",
      "nodes": [
        0
      ]
    }
  ]
}
